<svg xmlns="http://www.w3.org/2000/svg" viewBox="0 0 760 560" role="img" aria-labelledby="title desc">
  <title id="title">Volume XX Africa source map</title>
  <desc id="desc">A stylized research map connecting North Africa, West Africa, East Africa, Central Africa, and policy source files.</desc>
  <defs>
    <filter id="shadow" x="-20%" y="-20%" width="140%" height="140%">
      <feDropShadow dx="0" dy="14" stdDeviation="18" flood-color="#14213d" flood-opacity="0.18" />
    </filter>
    <linearGradient id="paper" x1="0" x2="1" y1="0" y2="1">
      <stop offset="0" stop-color="#fffdf8" />
      <stop offset="1" stop-color="#eef6f0" />
    </linearGradient>
  </defs>
  <rect width="760" height="560" rx="18" fill="url(#paper)" />
  <path d="M88 96h584M88 178h584M88 260h584M88 342h584M88 424h584M164 58v444M292 58v444M420 58v444M548 58v444" stroke="#ccd8d2" stroke-width="1" />
  <g filter="url(#shadow)">
    <path d="M308 98l46-22 94 20 52 46 42 78-12 63 32 42-18 54-72 44-62 10-58 48-84-18-26-58-72-36-30-78 28-78 44-30 14-74z" fill="#f7e7c3" stroke="#14213d" stroke-width="3" />
    <path d="M269 121l58-22 80 12 60 36 31 54-93 6-68-26-76 10-54 42 8-72z" fill="#d9654b" opacity="0.86" />
    <path d="M220 244l79-36 85 22 20 68-36 70-92 10-86-48-10-46z" fill="#2b8a78" opacity="0.84" />
    <path d="M405 214l94-6 39 54-12 70-72 22-58-44z" fill="#2d6f9f" opacity="0.84" />
    <path d="M376 330l82 36 12 54-62 10-60 48-72-16-18-64 91-12z" fill="#c7922f" opacity="0.86" />
    <path d="M512 328l44 48-23 44-55 7-10-56z" fill="#7d7f89" opacity="0.78" />
  </g>
  <g fill="#14213d" font-family="Inter, Arial, sans-serif" font-size="18" font-weight="800">
    <text x="262" y="154">North Africa</text>
    <text x="196" y="314">West Africa</text>
    <text x="430" y="286">Horn / East</text>
    <text x="320" y="418">Central</text>
    <text x="504" y="410">Boundary</text>
  </g>
  <g stroke="#14213d" stroke-width="3" stroke-linecap="round" fill="none" opacity="0.78">
    <path d="M186 98c-54 42-82 96-84 162 0 74 35 134 106 178" />
    <path d="M574 116c58 56 82 119 72 189-8 54-37 99-88 136" />
    <path d="M164 448c114 58 246 58 396 0" />
  </g>
  <g font-family="Inter, Arial, sans-serif" font-size="14" font-weight="800">
    <g transform="translate(74 72)">
      <rect width="172" height="62" rx="8" fill="#14213d" />
      <text x="18" y="26" fill="#ffffff">Bush Library</text>
      <text x="18" y="46" fill="#b9d9d1">Memcons / telcons</text>
    </g>
    <g transform="translate(514 64)">
      <rect width="174" height="62" rx="8" fill="#2b8a78" />
      <text x="18" y="26" fill="#ffffff">NARA Catalog</text>
      <text x="18" y="46" fill="#e9fff9">NSC / NSR / NSD</text>
    </g>
    <g transform="translate(92 440)">
      <rect width="170" height="62" rx="8" fill="#d9654b" />
      <text x="18" y="26" fill="#ffffff">Public Papers</text>
      <text x="18" y="46" fill="#fff1e9">Public line checks</text>
    </g>
    <g transform="translate(496 444)">
      <rect width="174" height="62" rx="8" fill="#c7922f" />
      <text x="18" y="26" fill="#151515">Compiler Desk</text>
      <text x="18" y="46" fill="#3a2a0a">Boundary control</text>
    </g>
  </g>
  <g fill="#ffffff" stroke="#14213d" stroke-width="3">
    <circle cx="356" cy="112" r="8" />
    <circle cx="298" cy="246" r="8" />
    <circle cx="478" cy="270" r="8" />
    <circle cx="380" cy="390" r="8" />
    <circle cx="532" cy="368" r="8" />
  </g>
</svg>
